<svg width="1418" height="585" viewBox="0 0 1418 585" fill="none" xmlns="http://www.w3.org/2000/svg">
<rect width="1430" height="535" transform="translate(0 49.1406)" fill="black"/>
<g clip-path="url(#clip0_1_1444)">
<g opacity="0.25" clip-path="url(#clip1_1_1444)">
<path d="M719.416 -208.756C723.912 -211.115 729.454 -211.115 733.95 -208.756L866.872 -139.042C871.369 -136.683 874.139 -132.325 874.139 -127.608V11.8218C874.139 16.5386 871.369 20.8972 866.872 23.2556L439.038 247.645C434.542 250.003 429 250.003 424.504 247.645L291.582 177.931C287.085 175.572 284.315 171.214 284.315 166.496V27.0672C284.315 22.3504 287.085 17.9918 291.582 15.6325L719.416 -208.756Z" stroke="white" stroke-width="0.908403"/>
<path d="M1014.32 255.267C1018.82 252.908 1024.36 252.908 1028.86 255.267L1161.78 324.981C1166.28 327.34 1169.05 331.698 1169.05 336.415V475.847C1169.05 480.559 1166.28 484.924 1161.78 487.276L733.948 711.669C729.451 714.029 723.91 714.029 719.413 711.669L586.492 641.957C581.995 639.597 579.225 635.24 579.225 630.52V491.088C579.225 486.376 581.995 482.011 586.492 479.659L1014.32 255.267Z" stroke="white" stroke-width="0.908403"/>
<path d="M1014.32 -363.798C1018.82 -366.157 1024.36 -366.157 1028.86 -363.798L1161.78 -294.084C1166.28 -291.726 1169.05 -287.367 1169.05 -282.65V-143.22C1169.05 -138.504 1166.28 -134.145 1161.78 -131.787L881.404 15.2652C876.907 17.6236 874.137 21.9823 874.137 26.699V173.751V320.804C874.137 325.52 871.367 329.879 866.869 332.237L733.948 401.952C729.451 404.31 723.91 404.31 719.413 401.952L586.492 332.237C581.995 329.879 579.225 325.52 579.225 320.804V173.751V19.0768V-127.975C579.225 -132.693 581.995 -137.051 586.492 -139.41L1014.32 -363.798Z" stroke="white" stroke-width="0.908403"/>
<path d="M874.137 1094.54C874.137 1099.26 876.907 1103.62 881.404 1105.98L1014.33 1175.69C1018.82 1178.05 1024.36 1178.05 1028.86 1175.69L1161.78 1105.98C1166.28 1103.62 1169.05 1099.26 1169.05 1094.54V645.762C1169.05 641.05 1166.28 636.693 1161.78 634.333L1028.86 564.613C1024.36 562.261 1018.82 562.261 1014.33 564.613L881.404 634.333C876.907 636.693 874.137 641.05 874.137 645.762V1094.54Z" stroke="url(#paint0_linear_1_1444)" stroke-width="0.908403"/>
<path d="M1309.24 711.669C1313.73 714.029 1319.27 714.029 1323.77 711.669L1456.7 641.957C1461.19 639.597 1463.96 635.24 1463.96 630.52V491.088C1463.96 486.376 1461.19 482.011 1456.7 479.659L1028.86 255.267C1024.36 252.908 1018.82 252.908 1014.33 255.267L881.405 324.981C876.908 327.34 874.138 331.698 874.138 336.415V475.847C874.138 480.559 876.908 484.924 881.405 487.276L1309.24 711.669Z" stroke="url(#paint1_linear_1_1444)" stroke-width="0.908403"/>
<path d="M284.312 785.194C284.312 789.914 287.082 794.271 291.579 796.631L424.501 866.343C428.998 868.703 434.538 868.703 439.035 866.343L571.957 796.631C576.454 794.271 579.224 789.914 579.224 785.194V336.415C579.224 331.698 576.454 327.34 571.957 324.981L439.035 255.267C434.538 252.908 428.998 252.908 424.501 255.267L291.579 324.981C287.082 327.34 284.312 331.698 284.312 336.415V785.194Z" stroke="url(#paint2_linear_1_1444)" stroke-width="0.908403"/>
<path d="M874.137 1094.54C874.137 1099.26 876.907 1103.62 881.404 1105.98L1014.33 1175.69C1018.82 1178.05 1024.36 1178.05 1028.86 1175.69L1161.78 1105.98C1166.28 1103.62 1169.05 1099.26 1169.05 1094.54V645.762C1169.05 641.05 1166.28 636.693 1161.78 634.333L1028.86 564.613C1024.36 562.261 1018.82 562.261 1014.33 564.613L881.404 634.333C876.907 636.693 874.137 641.05 874.137 645.762V1094.54Z" stroke="url(#paint3_linear_1_1444)" stroke-width="0.908403"/>
<path d="M1309.24 711.669C1313.73 714.029 1319.27 714.029 1323.77 711.669L1456.7 641.957C1461.19 639.597 1463.96 635.24 1463.96 630.52V491.088C1463.96 486.376 1461.19 482.011 1456.7 479.659L1028.86 255.267C1024.36 252.908 1018.82 252.908 1014.33 255.267L881.405 324.981C876.908 327.34 874.138 331.698 874.138 336.415V475.847C874.138 480.559 876.908 484.924 881.405 487.276L1309.24 711.669Z" stroke="url(#paint4_linear_1_1444)" stroke-width="0.908403"/>
<path d="M284.312 785.194C284.312 789.914 287.082 794.271 291.579 796.631L424.501 866.343C428.998 868.703 434.538 868.703 439.035 866.343L571.957 796.631C576.454 794.271 579.224 789.914 579.224 785.194V336.415C579.224 331.698 576.454 327.34 571.957 324.981L439.035 255.267C434.538 252.908 428.998 252.908 424.501 255.267L291.579 324.981C287.082 327.34 284.312 331.698 284.312 336.415V785.194Z" stroke="url(#paint5_linear_1_1444)" stroke-width="0.908403"/>
<path d="M1021.59 581.43C1034.14 581.43 1044.3 572.196 1044.3 560.801C1044.3 549.405 1034.14 540.171 1021.59 540.171C1009.05 540.171 998.884 549.405 998.884 560.801C998.884 572.196 1009.05 581.43 1021.59 581.43Z" fill="white"/>
<path d="M284.314 504.102C296.856 504.102 307.024 494.868 307.024 483.472C307.024 472.076 296.856 462.842 284.314 462.842C271.771 462.842 261.604 472.076 261.604 483.472C261.604 494.868 271.771 504.102 284.314 504.102Z" fill="white"/>
<path d="M579.227 504.093C591.77 504.093 601.937 494.86 601.937 483.464C601.937 472.068 591.77 462.834 579.227 462.834C566.685 462.834 556.517 472.068 556.517 483.464C556.517 494.86 566.685 504.093 579.227 504.093Z" fill="white"/>
<path d="M874.135 349.423C886.677 349.423 896.845 340.186 896.845 328.793C896.845 317.399 886.677 308.163 874.135 308.163C861.593 308.163 851.425 317.399 851.425 328.793C851.425 340.186 861.593 349.423 874.135 349.423Z" fill="white"/>
<path d="M1021.59 564.935C1024.1 564.935 1026.13 563.086 1026.13 560.809C1026.13 558.531 1024.1 556.683 1021.59 556.683C1019.08 556.683 1017.05 558.531 1017.05 560.809C1017.05 563.086 1019.08 564.935 1021.59 564.935Z" fill="black"/>
<path d="M284.316 487.59C286.825 487.59 288.858 485.741 288.858 483.464C288.858 481.186 286.825 479.338 284.316 479.338C281.808 479.338 279.774 481.186 279.774 483.464C279.774 485.741 281.808 487.59 284.316 487.59Z" fill="black"/>
<path d="M579.227 487.598C581.736 487.598 583.769 485.75 583.769 483.472C583.769 481.195 581.736 479.346 579.227 479.346C576.719 479.346 574.685 481.195 574.685 483.472C574.685 485.75 576.719 487.598 579.227 487.598Z" fill="black"/>
<path d="M874.136 332.918C876.645 332.918 878.678 331.071 878.678 328.792C878.678 326.514 876.645 324.666 874.136 324.666C871.628 324.666 869.594 326.514 869.594 328.792C869.594 331.071 871.628 332.918 874.136 332.918Z" fill="black"/>
</g>
</g>
<defs>
<linearGradient id="paint0_linear_1_1444" x1="1169.05" y1="562.849" x2="689.611" y2="792.9" gradientUnits="userSpaceOnUse">
<stop/>
<stop offset="1"/>
</linearGradient>
<linearGradient id="paint1_linear_1_1444" x1="1463.96" y1="253.498" x2="1017.89" y2="825.538" gradientUnits="userSpaceOnUse">
<stop/>
<stop offset="1"/>
</linearGradient>
<linearGradient id="paint2_linear_1_1444" x1="579.224" y1="253.498" x2="99.7855" y2="483.548" gradientUnits="userSpaceOnUse">
<stop/>
<stop offset="1"/>
</linearGradient>
<linearGradient id="paint3_linear_1_1444" x1="1169.05" y1="562.849" x2="689.611" y2="792.9" gradientUnits="userSpaceOnUse">
<stop/>
<stop offset="1"/>
</linearGradient>
<linearGradient id="paint4_linear_1_1444" x1="1463.96" y1="253.498" x2="1017.89" y2="825.538" gradientUnits="userSpaceOnUse">
<stop stop-color="white"/>
<stop offset="1" stop-color="white"/>
</linearGradient>
<linearGradient id="paint5_linear_1_1444" x1="579.224" y1="253.498" x2="99.7855" y2="483.548" gradientUnits="userSpaceOnUse">
<stop stop-color="white"/>
<stop offset="1" stop-color="white"/>
</linearGradient>
<clipPath id="clip0_1_1444">
<rect width="1430" height="535" fill="white" transform="translate(0 49.1406)"/>
</clipPath>
<clipPath id="clip1_1_1444">
<rect width="1200" height="2042.98" fill="white" transform="translate(265 -461.605)"/>
</clipPath>
</defs>
</svg>
